<?xml version="1.0" encoding="UTF-8"?>
<!-- Created with Grafika (https://www.grafika.cc/) -->
<svg xmlns="http://www.w3.org/2000/svg" xmlns:svg="http://www.w3.org/2000/svg" xmlns:xlink="http://www.w3.org/1999/xlink" width="448" height="512" viewBox="0 0 448 512" preserveAspectRatio="xMidYMid meet" id="1363382">
	<path d="M64,160 L128,160 L128,96 L64,96 L64,160 L64,160 ZM0,80 C0,53.5 21.5,32 48,32 L144,32 C170.5,32 192,53.5 192,80 L192,176 C192,202.5 170.5,224 144,224 L48,224 C21.5,224 0,202.5 0,176 L0,80 L0,80 ZM64,416 L128,416 L128,352 L64,352 L64,416 L64,416 ZM0,336 C0,309.5 21.5,288 48,288 L144,288 C170.5,288 192,309.5 192,336 L192,432 C192,458.5 170.5,480 144,480 L48,480 C21.5,480 0,458.5 0,432 L0,336 L0,336 ZM320,96 L320,160 L384,160 L384,96 L320,96 L320,96 ZM304,32 L400,32 C426.5,32 448,53.5 448,80 L448,176 C448,202.5 426.5,224 400,224 L304,224 C277.5,224 256,202.5 256,176 L256,80 C256,53.5 277.5,32 304,32 L304,32 ZM288,352 C276.53,352.05 265.92,345.96 260.17,336.04 C254.42,326.12 254.42,313.88 260.17,303.96 C265.92,294.04 276.53,287.95 288,288 C299.47,287.95 310.08,294.04 315.83,303.96 C321.58,313.88 321.58,326.12 315.83,336.04 C310.08,345.96 299.47,352.05 288,352 L288,352 ZM288,416 C305.7,416 320,430.3 320,448 C320,465.7 305.7,480 288,480 C270.3,480 256,465.7 256,448 C256,430.3 270.3,416 288,416 L288,416 ZM384,448 C384,430.3 398.3,416 416,416 C433.7,416 448,430.3 448,448 C448,465.7 433.7,480 416,480 C398.3,480 384,465.7 384,448 L384,448 ZM416,352 C404.53,352.05 393.92,345.96 388.17,336.04 C382.42,326.12 382.42,313.88 388.17,303.96 C393.92,294.04 404.53,287.95 416,288 C427.47,287.95 438.08,294.04 443.83,303.96 C449.58,313.88 449.58,326.12 443.83,336.04 C438.08,345.96 427.47,352.05 416,352 L416,352 ZM384,384 C384.05,395.47 377.96,406.08 368.04,411.83 C358.12,417.58 345.88,417.58 335.96,411.83 C326.04,406.08 319.95,395.47 320,384 C319.95,372.53 326.04,361.92 335.96,356.17 C345.88,350.42 358.12,350.42 368.04,356.17 C377.96,361.92 384.05,372.53 384,384 L384,384 Z" style="fill:#CAC9CD;" />
</svg>