<?xml version="1.0" encoding="UTF-8"?>
<!-- Created with Grafika (https://www.grafika.cc/) -->
<svg xmlns="http://www.w3.org/2000/svg" xmlns:svg="http://www.w3.org/2000/svg" xmlns:xlink="http://www.w3.org/1999/xlink" width="2048" height="287.95" viewBox="0 0 1778.04 250" preserveAspectRatio="xMidYMid meet" id="logo.svg2">
	<path transform="matrix(1.0026146173477173, 0, 0, 1.0026146173477173, 1041.17138671875, 144.09432983398438)" d="M-64.74,47.74 Q-72.27,28.13 -72.2,11.27 Q-72.13,-5.59 -66.45,-18.86 Q-60.8,-32.19 -50.41,-41.69 Q-40.04,-51.25 -27.18,-56.19 Q2.72,-67.67 25.8,-55.14 Q48.87,-42.62 63.53,-4.45 Q64.19,-2.71 65.23,-0 Q66.27,2.71 66.85,5.04 L-34.52,43.96 Q-23.92,66.37 -7.65,73.85 Q8.62,81.32 33.37,71.82 Q47.35,66.46 55.97,60.44 Q64.56,54.35 68.54,50.18 L80.74,70.95 Q76.86,75.39 65.86,82.89 Q54.85,90.38 39.49,96.28 Q20.16,103.7 3.8,103.28 Q-12.55,102.85 -25.59,96.13 Q-38.64,89.34 -48.49,77 Q-58.28,64.57 -64.74,47.74 ZM31.33,-5.81 Q24.72,-23.86 11.05,-31.85 Q-2.63,-39.84 -18.83,-33.62 Q-28.01,-30.1 -33.58,-23.82 Q-39.17,-17.6 -41.85,-10.03 Q-44.46,-2.49 -44.31,5.99 Q-44.19,14.4 -42.16,22.4 L31.33,-5.81 Z" style="fill:#FFFFFF;" />
	<ellipse cx="1444.88" cy="163.49" rx="49.05" ry="63.67" style="fill:#FFFFFF;" />
	<path transform="matrix(1.6846815347671509, 0, 0, 1.6846815347671509, 1461.3980712890625, 123.48501586914062)" d="M-136.78,-73.3 Q-130.17,-73.3 -125.48,-72.47 Q-120.8,-71.65 -118.73,-70.86 L-121.17,-55.85 Q-123.23,-56.58 -126.81,-57.41 Q-130.4,-58.28 -135.45,-58.28 Q-147.67,-58.28 -152.58,-51.57 Q-157.45,-44.91 -157.45,-33.62 L-157.45,-25.17 L-119.83,-25.17 L-119.83,-10.47 L-157.45,-10.47 L-157.45,72.66 L-174.95,72.66 L-174.95,-33.98 Q-174.95,-52.81 -165.76,-63.06 Q-156.53,-73.3 -136.78,-73.3 ZM-72.25,74.55 Q-88.42,74.18 -95.22,67.61 Q-101.97,61 -101.97,47.08 L-101.97,-70.31 L-84.47,-73.3 L-84.47,44.28 Q-84.47,48.6 -83.73,51.44 Q-82.95,54.25 -81.3,55.94 Q-79.6,57.6 -76.8,58.47 Q-73.95,59.3 -69.82,59.85 L-72.25,74.55 ZM36.12,23.75 Q36.12,35.41 32.73,44.83 Q29.33,54.25 23.22,61.04 Q17.11,67.79 8.61,71.47 Q0.16,75.1 -9.81,75.1 Q-19.77,75.1 -28.22,71.47 Q-36.67,67.79 -42.83,61.04 Q-48.94,54.25 -52.34,44.83 Q-55.69,35.41 -55.69,23.75 Q-55.69,12.27 -52.34,2.76 Q-48.94,-6.75 -42.83,-13.5 Q-36.67,-20.25 -28.22,-23.93 Q-19.77,-27.6 -9.81,-27.6 Q0.16,-27.6 8.61,-23.93 Q17.11,-20.25 23.22,-13.5 Q29.33,-6.75 32.73,2.76 Q36.12,12.27 36.12,23.75 ZM17.84,23.75 Q17.84,7.21 10.4,-2.48 Q3.01,-12.17 -9.81,-12.17 Q-22.57,-12.17 -30.01,-2.48 Q-37.45,7.21 -37.45,23.75 Q-37.45,40.28 -30.01,49.97 Q-22.57,59.67 -9.81,59.67 Q3.01,59.67 10.4,49.97 Q17.84,40.28 17.84,23.75 ZM138.24,72.66 Q133,59.11 127.08,41.71 Q121.16,24.3 116.24,5.52 Q111.37,24.3 105.54,41.71 Q99.71,59.11 94.42,72.66 L79.18,72.66 Q70.54,53.28 62.23,28.48 Q53.96,3.63 46.66,-25.17 L65.44,-25.17 Q67.33,-16.3 69.94,-5.97 Q72.61,4.37 75.5,14.75 Q78.44,25.08 81.61,34.68 Q84.83,44.28 87.67,51.4 Q90.84,42.58 93.92,32.7 Q97.04,22.83 99.84,12.77 Q102.69,2.67 105.22,-7.02 Q107.79,-16.71 109.67,-25.17 L124.14,-25.17 Q125.84,-16.71 128.27,-7.02 Q130.75,2.67 133.56,12.77 Q136.4,22.83 139.48,32.7 Q142.6,42.58 145.77,51.4 Q148.62,44.28 151.7,34.68 Q154.82,25.08 157.81,14.75 Q160.84,4.37 163.46,-5.97 Q166.12,-16.3 168,-25.17 L186.05,-25.17 Q178.7,3.63 170.44,28.48 Q162.17,53.28 153.49,72.66 L138.24,72.66 Z" style="fill:#FFFFFF;" />
	<path transform="matrix(1.5381280183792114, 0, 0, 1.5381280183792114, 469.8276672363281, 123.70706176757812)" d="M-238.46,82.11 Q-253.47,82.11 -265.81,77.19 Q-278.16,72.27 -286.99,62.84 Q-295.82,53.35 -300.64,39.5 Q-305.45,25.6 -305.45,7.74 Q-305.45,-10.17 -300.03,-24.02 Q-294.56,-37.92 -285.33,-47.36 Q-276.1,-56.79 -263.75,-61.71 Q-251.41,-66.68 -237.46,-66.68 Q-228.63,-66.68 -221.55,-65.42 Q-214.43,-64.22 -209.21,-62.56 Q-203.94,-60.91 -200.68,-59.25 Q-197.36,-57.64 -196.11,-56.79 L-201.88,-40.38 Q-203.74,-41.59 -207.25,-43.04 Q-210.71,-44.5 -215.13,-45.9 Q-219.54,-47.36 -224.81,-48.26 Q-230.03,-49.21 -235.4,-49.21 Q-246.69,-49.21 -255.72,-45.3 Q-264.76,-41.39 -271.13,-33.96 Q-277.5,-26.58 -280.92,-16 Q-284.33,-5.41 -284.33,7.74 Q-284.33,20.49 -281.37,30.97 Q-278.36,41.41 -272.38,48.94 Q-266.41,56.42 -257.48,60.53 Q-248.55,64.65 -236.61,64.65 Q-222.86,64.65 -213.82,61.79 Q-204.74,58.92 -200.23,56.67 L-195.11,73.08 Q-196.56,74.13 -200.28,75.69 Q-203.94,77.19 -209.51,78.65 Q-215.03,80.05 -222.46,81.05 Q-229.83,82.11 -238.46,82.11 ZM-82.25,25.6 Q-82.25,38.35 -85.96,48.64 Q-89.67,58.92 -96.35,66.35 Q-103.02,73.73 -112.31,77.74 Q-121.54,81.71 -132.43,81.71 Q-143.32,81.71 -152.55,77.74 Q-161.78,73.73 -168.51,66.35 Q-175.18,58.92 -178.9,48.64 Q-182.56,38.35 -182.56,25.6 Q-182.56,13.06 -178.9,2.67 Q-175.18,-7.72 -168.51,-15.09 Q-161.78,-22.47 -152.55,-26.48 Q-143.32,-30.5 -132.43,-30.5 Q-121.54,-30.5 -112.31,-26.48 Q-103.02,-22.47 -96.35,-15.09 Q-89.67,-7.72 -85.96,2.67 Q-82.25,13.06 -82.25,25.6 ZM-102.22,25.6 Q-102.22,7.54 -110.35,-3.05 Q-118.43,-13.64 -132.43,-13.64 Q-146.38,-13.64 -154.51,-3.05 Q-162.64,7.54 -162.64,25.6 Q-162.64,43.67 -154.51,54.26 Q-146.38,64.85 -132.43,64.85 Q-118.43,64.85 -110.35,54.26 Q-102.22,43.67 -102.22,25.6 ZM-55.32,-24.73 Q-48.75,-26.38 -37.86,-28.24 Q-26.97,-30.1 -12.77,-30.1 Q-0.02,-30.1 8.36,-26.48 Q16.79,-22.92 21.81,-16.45 Q26.88,-9.97 28.93,-0.89 Q30.99,8.14 30.99,19.03 L30.99,79.05 L11.87,79.05 L11.87,23.15 Q11.87,13.26 10.52,6.29 Q9.21,-0.69 6.1,-5.01 Q3.04,-9.32 -2.13,-11.28 Q-7.25,-13.24 -14.82,-13.24 Q-17.93,-13.24 -21.25,-13.03 Q-24.51,-12.83 -27.52,-12.53 Q-30.48,-12.23 -32.84,-11.78 Q-35.2,-11.38 -36.2,-11.18 L-36.2,79.05 L-55.32,79.05 L-55.32,-24.73 ZM87.5,65.3 Q99.24,65.3 104.86,62.24 Q110.53,59.13 110.53,52.35 Q110.53,45.33 104.96,41.21 Q99.44,37.1 86.7,31.98 Q80.52,29.52 74.85,26.96 Q69.23,24.35 65.12,20.89 Q61,17.38 58.55,12.46 Q56.09,7.54 56.09,0.31 Q56.09,-13.84 66.52,-22.17 Q77.01,-30.5 95.13,-30.5 Q99.64,-30.5 104.16,-30 Q108.68,-29.49 112.59,-28.74 Q116.5,-28.04 119.46,-27.19 Q122.48,-26.38 124.08,-25.78 L120.62,-9.32 Q117.51,-10.98 110.93,-12.73 Q104.36,-14.49 95.13,-14.49 Q87.1,-14.49 81.13,-11.28 Q75.21,-8.12 75.21,-1.34 Q75.21,2.17 76.51,4.88 Q77.86,7.54 80.62,9.7 Q83.38,11.86 87.5,13.71 Q91.61,15.52 97.39,17.58 Q104.96,20.49 110.93,23.25 Q116.91,26.01 121.12,29.72 Q125.34,33.43 127.59,38.7 Q129.85,43.92 129.85,51.5 Q129.85,66.3 118.86,73.93 Q107.87,81.51 87.5,81.51 Q73.35,81.51 65.32,79.15 Q57.29,76.79 54.43,75.53 L57.89,59.13 Q61.21,60.33 68.38,62.84 Q75.61,65.3 87.5,65.3 ZM248.67,25.6 Q248.67,38.35 244.96,48.64 Q241.24,58.92 234.57,66.35 Q227.9,73.73 218.61,77.74 Q209.38,81.71 198.49,81.71 Q187.6,81.71 178.37,77.74 Q169.13,73.73 162.41,66.35 Q155.74,58.92 152.02,48.64 Q148.36,38.35 148.36,25.6 Q148.36,13.06 152.02,2.67 Q155.74,-7.72 162.41,-15.09 Q169.13,-22.47 178.37,-26.48 Q187.6,-30.5 198.49,-30.5 Q209.38,-30.5 218.61,-26.48 Q227.9,-22.47 234.57,-15.09 Q241.24,-7.72 244.96,2.67 Q248.67,13.06 248.67,25.6 ZM228.7,25.6 Q228.7,7.54 220.57,-3.05 Q212.49,-13.64 198.49,-13.64 Q184.54,-13.64 176.41,-3.05 Q168.28,7.54 168.28,25.6 Q168.28,43.67 176.41,54.26 Q184.54,64.85 198.49,64.85 Q212.49,64.85 220.57,54.26 Q228.7,43.67 228.7,25.6 ZM307.66,81.1 Q289.95,80.7 282.52,73.53 Q275.15,66.3 275.15,51.1 L275.15,-77.17 L294.27,-80.43 L294.27,48.04 Q294.27,52.75 295.07,55.86 Q295.92,58.92 297.78,60.78 Q299.63,62.59 302.7,63.54 Q305.81,64.44 310.32,65.05 L307.66,81.1 Z" style="fill:#FFFFFF;" />
</svg>